<svg width="548" height="209" viewBox="0 0 548 209" fill="none" xmlns="http://www.w3.org/2000/svg">
<rect x="4" y="4" width="187.202" height="201" stroke="#E4875D" stroke-width="8"/>
<path d="M124.836 42V76.2653H70.9671V42H57.5V89.9714H138.303V42H124.836Z" fill="#E4875D"/>
<path d="M124.836 120.796H57.5V168.767H70.9671V134.513H124.836V168.762H138.303V120.796H124.836Z" fill="#E4875D"/>
<path d="M229.682 91V23.95H241.922V53.2H270.452V23.95H282.782V91H270.452V64H241.922V91H229.682ZM314.158 92.08C310.378 92.08 307.078 91.24 304.258 89.56C301.498 87.88 299.368 85.54 297.868 82.54C296.428 79.54 295.708 76.03 295.708 72.01V42.04H307.498V71.02C307.498 73.06 307.888 74.86 308.668 76.42C309.508 77.92 310.678 79.12 312.178 80.02C313.738 80.86 315.478 81.28 317.398 81.28C319.318 81.28 321.028 80.86 322.528 80.02C324.028 79.12 325.198 77.89 326.038 76.33C326.878 74.77 327.298 72.91 327.298 70.75V42.04H339.088V91H327.928V81.37L328.918 83.08C327.778 86.08 325.888 88.33 323.248 89.83C320.668 91.33 317.638 92.08 314.158 92.08ZM378.777 92.08C375.237 92.08 371.967 91.39 368.967 90.01C366.027 88.57 363.687 86.53 361.947 83.89L363.117 81.55V91H352.047V22.87H363.837V51.76L362.037 49.33C363.717 46.69 365.997 44.65 368.877 43.21C371.757 41.71 375.087 40.96 378.867 40.96C383.487 40.96 387.657 42.1 391.377 44.38C395.097 46.66 398.037 49.72 400.197 53.56C402.417 57.4 403.527 61.72 403.527 66.52C403.527 71.26 402.447 75.58 400.287 79.48C398.127 83.38 395.187 86.47 391.467 88.75C387.747 90.97 383.517 92.08 378.777 92.08ZM377.427 81.28C380.127 81.28 382.527 80.65 384.627 79.39C386.727 78.13 388.347 76.39 389.487 74.17C390.687 71.95 391.287 69.4 391.287 66.52C391.287 63.64 390.687 61.12 389.487 58.96C388.347 56.74 386.727 55 384.627 53.74C382.527 52.42 380.127 51.76 377.427 51.76C374.847 51.76 372.507 52.39 370.407 53.65C368.367 54.91 366.747 56.68 365.547 58.96C364.407 61.18 363.837 63.7 363.837 66.52C363.837 69.4 364.407 71.95 365.547 74.17C366.747 76.39 368.367 78.13 370.407 79.39C372.507 80.65 374.847 81.28 377.427 81.28ZM414.516 91V42.04H426.306V91H414.516ZM414.516 36.55V23.95H426.306V36.55H414.516ZM439.192 91V22.87H450.982V91H439.192ZM487.808 92.08C483.008 92.08 478.628 90.97 474.668 88.75C470.768 86.53 467.648 83.5 465.308 79.66C463.028 75.82 461.888 71.44 461.888 66.52C461.888 61.6 463.028 57.22 465.308 53.38C467.648 49.54 470.768 46.51 474.668 44.29C478.568 42.07 482.948 40.96 487.808 40.96C492.608 40.96 496.958 42.07 500.858 44.29C504.758 46.51 507.848 49.54 510.128 53.38C512.468 57.16 513.638 61.54 513.638 66.52C513.638 71.44 512.468 75.82 510.128 79.66C507.788 83.5 504.668 86.53 500.768 88.75C496.868 90.97 492.548 92.08 487.808 92.08ZM487.808 81.28C490.448 81.28 492.758 80.65 494.738 79.39C496.778 78.13 498.368 76.39 499.508 74.17C500.708 71.89 501.308 69.34 501.308 66.52C501.308 63.64 500.708 61.12 499.508 58.96C498.368 56.74 496.778 55 494.738 53.74C492.758 52.42 490.448 51.76 487.808 51.76C485.108 51.76 482.738 52.42 480.698 53.74C478.658 55 477.038 56.74 475.838 58.96C474.698 61.12 474.128 63.64 474.128 66.52C474.128 69.34 474.698 71.89 475.838 74.17C477.038 76.39 478.658 78.13 480.698 79.39C482.738 80.65 485.108 81.28 487.808 81.28ZM253.622 186.08C249.362 186.08 245.402 185.3 241.742 183.74C238.142 182.18 235.022 180.02 232.382 177.26C229.802 174.44 227.912 171.17 226.712 167.45L236.882 163.04C238.502 166.88 240.842 169.91 243.902 172.13C246.962 174.29 250.412 175.37 254.252 175.37C256.412 175.37 258.272 175.04 259.832 174.38C261.452 173.66 262.682 172.7 263.522 171.5C264.422 170.3 264.872 168.86 264.872 167.18C264.872 165.2 264.272 163.58 263.072 162.32C261.932 161 260.192 159.98 257.852 159.26L244.982 155.12C239.762 153.5 235.832 151.07 233.192 147.83C230.552 144.59 229.232 140.78 229.232 136.4C229.232 132.56 230.162 129.17 232.022 126.23C233.942 123.29 236.582 121.01 239.942 119.39C243.362 117.71 247.262 116.87 251.642 116.87C255.662 116.87 259.352 117.59 262.712 119.03C266.072 120.41 268.952 122.36 271.352 124.88C273.812 127.34 275.642 130.25 276.842 133.61L266.762 138.11C265.442 134.75 263.462 132.17 260.822 130.37C258.182 128.51 255.122 127.58 251.642 127.58C249.602 127.58 247.802 127.94 246.242 128.66C244.682 129.32 243.452 130.28 242.552 131.54C241.712 132.74 241.292 134.18 241.292 135.86C241.292 137.72 241.892 139.37 243.092 140.81C244.292 142.19 246.122 143.27 248.582 144.05L260.912 147.92C266.252 149.66 270.242 152.06 272.882 155.12C275.582 158.18 276.932 161.96 276.932 166.46C276.932 170.3 275.942 173.69 273.962 176.63C271.982 179.57 269.252 181.88 265.772 183.56C262.292 185.24 258.242 186.08 253.622 186.08ZM326.673 203V175.55L328.563 177.89C326.883 180.53 324.543 182.57 321.543 184.01C318.543 185.39 315.273 186.08 311.733 186.08C306.993 186.08 302.763 184.97 299.043 182.75C295.323 180.47 292.383 177.38 290.223 173.48C288.063 169.58 286.983 165.26 286.983 160.52C286.983 155.72 288.063 151.4 290.223 147.56C292.383 143.72 295.323 140.66 299.043 138.38C302.823 136.1 307.023 134.96 311.643 134.96C315.363 134.96 318.663 135.71 321.543 137.21C324.483 138.65 326.793 140.69 328.473 143.33L327.303 145.76V136.04H338.463V203H326.673ZM312.993 175.28C315.693 175.28 318.063 174.65 320.103 173.39C322.143 172.13 323.733 170.39 324.873 168.17C326.073 165.95 326.673 163.4 326.673 160.52C326.673 157.7 326.073 155.18 324.873 152.96C323.733 150.68 322.143 148.91 320.103 147.65C318.063 146.39 315.693 145.76 312.993 145.76C310.353 145.76 307.983 146.42 305.883 147.74C303.783 149 302.133 150.74 300.933 152.96C299.793 155.12 299.223 157.64 299.223 160.52C299.223 163.4 299.793 165.95 300.933 168.17C302.133 170.39 303.783 172.13 305.883 173.39C307.983 174.65 310.353 175.28 312.993 175.28ZM368.892 186.08C365.112 186.08 361.812 185.24 358.992 183.56C356.232 181.88 354.102 179.54 352.602 176.54C351.162 173.54 350.442 170.03 350.442 166.01V136.04H362.232V165.02C362.232 167.06 362.622 168.86 363.402 170.42C364.242 171.92 365.412 173.12 366.912 174.02C368.472 174.86 370.212 175.28 372.132 175.28C374.052 175.28 375.762 174.86 377.262 174.02C378.762 173.12 379.932 171.89 380.772 170.33C381.612 168.77 382.032 166.91 382.032 164.75V136.04H393.822V185H382.662V175.37L383.652 177.08C382.512 180.08 380.622 182.33 377.982 183.83C375.402 185.33 372.372 186.08 368.892 186.08ZM421.632 186.08C418.212 186.08 415.242 185.51 412.722 184.37C410.202 183.23 408.252 181.61 406.872 179.51C405.492 177.35 404.802 174.86 404.802 172.04C404.802 169.34 405.402 166.94 406.602 164.84C407.802 162.68 409.662 160.88 412.182 159.44C414.702 158 417.882 156.98 421.722 156.38L437.742 153.77V162.77L423.972 165.11C421.632 165.53 419.892 166.28 418.752 167.36C417.612 168.44 417.042 169.85 417.042 171.59C417.042 173.27 417.672 174.62 418.932 175.64C420.252 176.6 421.872 177.08 423.792 177.08C426.252 177.08 428.412 176.57 430.272 175.55C432.192 174.47 433.662 173 434.682 171.14C435.762 169.28 436.302 167.24 436.302 165.02V152.42C436.302 150.32 435.462 148.58 433.782 147.2C432.162 145.76 430.002 145.04 427.302 145.04C424.782 145.04 422.532 145.73 420.552 147.11C418.632 148.43 417.222 150.2 416.322 152.42L406.692 147.74C407.652 145.16 409.152 142.94 411.192 141.08C413.292 139.16 415.752 137.66 418.572 136.58C421.392 135.5 424.452 134.96 427.752 134.96C431.772 134.96 435.312 135.71 438.372 137.21C441.432 138.65 443.802 140.69 445.482 143.33C447.222 145.91 448.092 148.94 448.092 152.42V185H436.932V176.63L439.452 176.45C438.192 178.55 436.692 180.32 434.952 181.76C433.212 183.14 431.232 184.22 429.012 185C426.792 185.72 424.332 186.08 421.632 186.08ZM460.989 185V136.04H472.059V146.93L471.159 145.31C472.299 141.65 474.069 139.1 476.469 137.66C478.929 136.22 481.869 135.5 485.289 135.5H488.169V145.94H483.939C480.579 145.94 477.879 146.99 475.839 149.09C473.799 151.13 472.779 154.01 472.779 157.73V185H460.989ZM519.871 186.08C514.831 186.08 510.421 184.94 506.641 182.66C502.861 180.38 499.921 177.29 497.821 173.39C495.721 169.49 494.671 165.17 494.671 160.43C494.671 155.51 495.721 151.16 497.821 147.38C499.981 143.54 502.891 140.51 506.551 138.29C510.271 136.07 514.411 134.96 518.971 134.96C522.811 134.96 526.171 135.59 529.051 136.85C531.991 138.11 534.481 139.85 536.521 142.07C538.561 144.29 540.121 146.84 541.201 149.72C542.281 152.54 542.821 155.6 542.821 158.9C542.821 159.74 542.761 160.61 542.641 161.51C542.581 162.41 542.431 163.19 542.191 163.85H504.391V154.85H535.531L529.951 159.08C530.491 156.32 530.341 153.86 529.501 151.7C528.721 149.54 527.401 147.83 525.541 146.57C523.741 145.31 521.551 144.68 518.971 144.68C516.511 144.68 514.321 145.31 512.401 146.57C510.481 147.77 509.011 149.57 507.991 151.97C507.031 154.31 506.671 157.16 506.911 160.52C506.671 163.52 507.061 166.19 508.081 168.53C509.161 170.81 510.721 172.58 512.761 173.84C514.861 175.1 517.261 175.73 519.961 175.73C522.661 175.73 524.941 175.16 526.801 174.02C528.721 172.88 530.221 171.35 531.301 169.43L540.841 174.11C539.881 176.45 538.381 178.52 536.341 180.32C534.301 182.12 531.871 183.53 529.051 184.55C526.291 185.57 523.231 186.08 519.871 186.08Z" fill="#E4875D"/>
</svg>
